<svg width="63" height="55" viewBox="0 0 63 55" fill="none" xmlns="http://www.w3.org/2000/svg">
<path d="M0.267965 40.3228L10.8442 54.3625C11.2841 54.9439 12.1208 55.0638 12.7022 54.6208L15.397 52.5967C15.9784 52.1568 16.0984 51.3201 15.6554 50.7387L5.07918 36.699C4.63929 36.1176 3.80255 35.9976 3.22114 36.4406L0.526363 38.4647C-0.0550391 38.9046 -0.175008 39.7413 0.267965 40.3228Z" fill="white"/>
<path d="M62.5975 31.6388C62.8959 31.2758 63.0374 30.8205 62.9913 30.3468C62.9359 29.8577 62.6991 29.4239 62.3145 29.1255C60.8502 27.9751 58.8015 27.9751 57.3372 29.1255L49.6683 35.1672C49.7236 35.5148 49.7636 35.8594 49.7636 36.2223C49.7636 37.9481 48.4808 39.4339 46.7704 39.6861C43.5497 40.1598 38.3851 40.7967 34.0349 40.7967C32.3737 40.7967 30.8387 40.7013 29.5682 40.4737C28.8053 40.3321 28.2916 39.6 28.4331 38.8371C28.5746 38.0742 29.316 37.5697 30.0696 37.702C34.4101 38.4987 42.8973 37.4036 46.349 36.8992C46.6812 36.853 46.9242 36.5669 46.9242 36.2285C46.9242 34.3705 45.4754 32.8355 43.6173 32.7401L39.7351 32.5279C37.2372 32.3925 34.7979 31.8911 32.4815 31.0329C23.244 27.6306 16.9038 28.8764 14.7074 31.6143C12.8001 34.0014 10.3453 36.0317 8.91797 37.136L16.3593 47.0043C18.005 46.0814 21.1951 44.8479 25.2188 45.9584C25.5172 46.0384 25.8555 46.1399 26.2277 46.2506C32.0172 47.9764 45.5768 52.0216 62.5885 31.6416L62.5975 31.6388Z" fill="white"/>
<path d="M40.8002 29.6702C41.5785 29.6702 42.2091 29.0396 42.2091 28.2613V19.7798C51.5734 19.7091 59.1713 12.0708 59.1713 2.6917V1.40893C59.1713 0.630653 58.5407 0 57.7624 0H56.4796C49.4627 0 43.4243 4.25128 40.7908 10.3179C38.1607 4.25475 32.1188 0 25.1021 0H23.8193C23.0411 0 22.4104 0.630621 22.4104 1.40893V2.6917C22.4104 12.0709 30.0086 19.709 39.3725 19.7798V28.2613C39.3725 29.0396 40.0032 29.6702 40.7815 29.6702H40.8002Z" fill="white"/>
</svg>
