<svg width="44" height="44" viewBox="0 0 44 44" fill="none" xmlns="http://www.w3.org/2000/svg">
<path d="M22.0021 0C16.0272 0 15.2773 0.0261254 12.9306 0.132917C10.5885 0.240167 8.98984 0.610959 7.591 1.155C6.14402 1.71692 4.91659 2.46858 3.69375 3.69188C2.46998 4.91471 1.71831 6.14212 1.15455 7.58862C0.609131 8.98792 0.237877 10.587 0.13246 12.9282C0.0275001 15.2749 0 16.0252 0 22C0 27.9748 0.026584 28.7224 0.132918 31.069C0.240628 33.4111 0.611423 35.0098 1.15501 36.4086C1.71739 37.8556 2.46907 39.083 3.69237 40.3058C4.91476 41.5296 6.14219 42.2831 7.58825 42.845C8.98801 43.389 10.5872 43.7598 12.9288 43.8671C15.2755 43.9739 16.0249 44 21.9993 44C27.9747 44 28.7222 43.9739 31.0689 43.8671C33.411 43.7598 35.0115 43.389 36.4113 42.845C37.8578 42.2831 39.0834 41.5296 40.3058 40.3058C41.5296 39.083 42.2812 37.8556 42.845 36.4091C43.3858 35.0098 43.7571 33.4107 43.8671 31.0695C43.9725 28.7228 44 27.9748 44 22C44 16.0252 43.9725 15.2753 43.8671 12.9287C43.7571 10.5866 43.3858 8.98792 42.845 7.58908C42.2812 6.14212 41.5296 4.91471 40.3058 3.69188C39.082 2.46813 37.8583 1.71646 36.4099 1.155C35.0074 0.610959 33.4078 0.240167 31.0657 0.132917C28.719 0.0261254 27.9719 0 21.9952 0H22.0021ZM20.0285 3.96458C20.6142 3.96367 21.2678 3.96458 22.0021 3.96458C27.8761 3.96458 28.5723 3.98567 30.892 4.09108C33.037 4.18917 34.2012 4.54758 34.9767 4.84871C36.0034 5.24746 36.7353 5.72412 37.5049 6.49412C38.2749 7.26412 38.7516 7.99746 39.1512 9.02413C39.4524 9.79871 39.8112 10.9629 39.9089 13.1079C40.0143 15.427 40.0372 16.1237 40.0372 21.995C40.0372 27.8662 40.0143 28.5629 39.9089 30.882C39.8108 33.027 39.4524 34.1912 39.1512 34.9658C38.7525 35.9925 38.2749 36.7235 37.5049 37.493C36.7349 38.263 36.0038 38.7397 34.9767 39.1385C34.2021 39.441 33.037 39.7985 30.892 39.8965C28.5728 40.002 27.8761 40.0249 22.0021 40.0249C16.1275 40.0249 15.4313 40.002 13.1121 39.8965C10.9671 39.7975 9.80294 39.4391 9.02697 39.138C8.00029 38.7393 7.26695 38.2626 6.49694 37.4926C5.72693 36.7226 5.25026 35.9911 4.85059 34.964C4.54946 34.1894 4.19059 33.0252 4.09296 30.8802C3.98754 28.561 3.96646 27.8644 3.96646 21.9895C3.96646 16.1145 3.98754 15.4215 4.09296 13.1024C4.19104 10.9574 4.54946 9.79321 4.85059 9.01771C5.24935 7.99104 5.72693 7.25771 6.49694 6.48771C7.26695 5.71771 8.00029 5.24104 9.02697 4.84137C9.80248 4.53888 10.9671 4.18138 13.1121 4.08283C15.1417 3.99117 15.9282 3.96367 20.0285 3.95908V3.96458ZM33.7456 7.6175C32.2881 7.6175 31.1056 8.79862 31.1056 10.2566C31.1056 11.7141 32.2881 12.8966 33.7456 12.8966C35.2031 12.8966 36.3856 11.7141 36.3856 10.2566C36.3856 8.79908 35.2031 7.61658 33.7456 7.61658V7.6175ZM22.0021 10.7021C15.7627 10.7021 10.704 15.7607 10.704 22C10.704 28.2393 15.7627 33.2956 22.0021 33.2956C28.2414 33.2956 33.2983 28.2393 33.2983 22C33.2983 15.7607 28.2414 10.7021 22.0021 10.7021ZM22.0021 14.6667C26.0519 14.6667 29.3355 17.9497 29.3355 22C29.3355 26.0498 26.0519 29.3333 22.0021 29.3333C17.9517 29.3333 14.6687 26.0498 14.6687 22C14.6687 17.9497 17.9517 14.6667 22.0021 14.6667Z" fill="black"/>
</svg>
