<svg width="45" height="45" viewBox="0 0 45 45" fill="none" xmlns="http://www.w3.org/2000/svg">
<path d="M44.4267 34.6324C43.2733 31.8293 40.5355 30.0012 37.4977 30.0012C33.3817 30.0574 30.0531 33.3856 29.9968 37.5009C29.9968 40.5383 31.8253 43.2662 34.6287 44.4288C37.432 45.5913 40.6574 44.9444 42.8046 42.8069C44.9517 40.6602 45.5893 37.4355 44.4267 34.6324Z" fill="white"/>
<path d="M4.63186 0.570843C1.82836 1.73336 0 4.47071 0 7.49868C0.0468059 11.6236 3.37529 14.9515 7.50093 14.9984C10.5294 14.9984 13.2672 13.1704 14.4299 10.3673C15.5926 7.57377 14.9456 4.33945 12.7984 2.20204C10.6607 0.0552486 7.42605 -0.591603 4.63186 0.570843Z" fill="white"/>
<path d="M32.1967 2.20518L3.44739 32.2013C0.521905 35.1263 0.521722 39.8695 3.44721 42.8039C6.3727 45.7289 11.1169 45.7289 14.0518 42.8039V42.7945L42.8011 12.7984C45.5578 9.84559 45.4733 5.24256 42.6135 2.3833C39.7632 -0.466645 35.1596 -0.550886 32.1967 2.20518Z" fill="white"/>
</svg>
