<svg width="44" height="35" viewBox="0 0 44 35" fill="none" xmlns="http://www.w3.org/2000/svg">
<path d="M40.2488 0.30899C40.2488 0.30899 44.3191 -1.20601 43.9799 2.47328C43.8669 3.9883 42.8493 9.29079 42.0578 15.0262L39.3443 32.0159C39.3443 32.0159 39.1182 34.5048 37.083 34.9377C35.0478 35.3705 31.9951 33.4227 31.4297 32.9898C30.9775 32.6652 22.95 27.7955 20.1233 25.4148C19.3318 24.7655 18.4273 23.4669 20.2363 21.9519L32.1082 11.1305C33.465 9.83189 34.8217 6.80189 29.1685 10.4812L13.3394 20.7616C13.3394 20.7616 11.5304 21.8437 8.13854 20.8698L0.789299 18.7055C0.789299 18.7055 -1.92426 17.0823 2.7114 15.459C14.0179 10.3729 27.9248 5.1786 40.2488 0.30899Z" fill="black"/>
</svg>
