<svg width="141" height="42" viewBox="0 0 141 42" fill="none" xmlns="http://www.w3.org/2000/svg">
<path d="M15.0324 41.4354H8.61688V36.8858C7.10034 36.5961 5.82235 36.1701 4.78293 35.6078C3.76054 35.0285 2.97671 34.4406 2.43143 33.8442L3.07043 27.6332C3.76906 28.5704 4.70625 29.3883 5.88199 30.0869C7.05774 30.7685 8.3272 31.1093 9.69039 31.1093C11.0536 31.1093 12.0334 30.9645 12.6298 30.6748C13.2432 30.3851 13.5499 29.8569 13.5499 29.0901C13.5499 28.2722 13.2006 27.5735 12.502 26.9942C11.8204 26.4148 10.6361 25.7162 8.94916 24.8983C8.52316 24.6768 8.16533 24.4893 7.87565 24.336C7.58597 24.1826 7.18554 23.9355 6.67434 23.5947C6.18019 23.254 5.75419 22.9217 5.39636 22.5979C5.03852 22.2742 4.64661 21.8567 4.22061 21.3455C3.81166 20.8343 3.47086 20.3061 3.19823 19.7608C2.94263 19.2155 2.72111 18.5765 2.53367 17.8438C2.36328 17.0941 2.27808 16.3102 2.27808 15.4923C2.27808 13.8735 2.52515 12.4678 3.01931 11.275C3.5305 10.0822 4.24617 9.12796 5.16632 8.41229C6.10351 7.67958 7.2537 7.14282 8.61688 6.80203V2.40576H15.0324V6.57199C15.7821 6.70831 16.4807 6.90427 17.1283 7.15987C17.7928 7.41546 18.3125 7.67106 18.6874 7.92666C19.0793 8.16521 19.4286 8.42933 19.7353 8.71901C20.0591 8.99164 20.2636 9.17908 20.3488 9.28132C20.434 9.38356 20.4936 9.46876 20.5277 9.53692L19.2497 14.4699C18.5852 13.6861 17.7502 13.1068 16.7449 12.7319C15.7566 12.34 14.8108 12.144 13.9077 12.144C11.7266 12.144 10.6361 12.8256 10.6361 14.1888C10.6361 14.5466 10.7043 14.8704 10.8406 15.16C10.9769 15.4497 11.1984 15.7138 11.5051 15.9524C11.8118 16.191 12.093 16.3954 12.3486 16.5658C12.6212 16.7362 12.9876 16.9492 13.4477 17.2048C13.9248 17.4434 14.2826 17.6393 14.5212 17.7927C17.009 18.8492 18.8322 20.1016 19.9909 21.55C21.1667 22.9984 21.7546 24.762 21.7546 26.8408C21.7546 29.6354 21.1837 31.8846 20.0421 33.5886C18.9004 35.2755 17.2305 36.3746 15.0324 36.8858V41.4354Z" fill="black"/>
<path d="M42.7125 33.9464C40.5485 36.1105 37.9754 37.1925 34.9935 37.1925C32.8806 37.1925 31.0488 36.8261 29.4982 36.0934C27.9646 35.3607 26.7462 34.3043 25.8431 32.924C24.94 31.5438 24.2755 29.9676 23.8495 28.1955C23.4405 26.4234 23.236 24.4041 23.236 22.1378C23.236 20.4509 23.3212 18.9344 23.4916 17.5882C23.6791 16.2421 23.9773 14.9556 24.3862 13.7287C24.7952 12.5018 25.3575 11.4454 26.0732 10.5593C26.7888 9.65619 27.6664 8.87236 28.7058 8.20781C29.7452 7.54326 31.0062 7.04911 32.4886 6.72535C33.9711 6.38455 35.658 6.21416 37.5495 6.21416C38.4014 6.21416 39.2108 6.26528 39.9776 6.36751C40.7615 6.46975 41.426 6.59755 41.9713 6.75091C42.5166 6.88723 43.0277 7.06615 43.5049 7.28766C43.999 7.49214 44.3824 7.67958 44.6551 7.84998C44.9447 8.00333 45.2088 8.17373 45.4474 8.36117C45.686 8.54861 45.8308 8.67641 45.8819 8.74457C45.9501 8.81272 46.0012 8.86384 46.0353 8.89792L45.6519 14.7767H41L39.5431 11.3772C39.1682 11.1727 38.5633 11.0705 37.7284 11.0705C37.0468 11.0705 36.4845 11.1301 36.0414 11.2494C35.5984 11.3687 35.1554 11.6243 34.7123 12.0162C34.2863 12.3911 33.9455 12.9449 33.6899 13.6776C33.4514 14.3933 33.2554 15.373 33.1021 16.617C32.9487 17.8438 32.872 19.3433 32.872 21.1155C32.872 24.8131 33.068 27.5565 33.4599 29.3457C33.8689 31.1349 34.6782 32.0294 35.8881 32.0294C36.4845 32.0294 36.9871 31.9783 37.3961 31.8761C37.805 31.7568 38.1884 31.5523 38.5463 31.2627C38.9041 30.9559 39.1682 30.5129 39.3386 29.9336C39.509 29.3372 39.5942 28.5789 39.5942 27.6587V25.0516L36.2204 24.2849V19.0707H47.5944L47.5689 36.6558H43.0192L42.7125 33.9464Z" fill="black"/>
<path d="M58.5565 26.6875V36.6558H50.0707V6.69979H53.4446C54.2625 6.69979 55.4808 6.66571 57.0996 6.59755C58.7184 6.51235 60.056 6.46975 61.1125 6.46975C64.7931 6.46975 67.5365 7.27914 69.3427 8.89792C71.166 10.5167 72.0776 12.996 72.0776 16.3358C72.0776 18.3124 71.6431 20.0675 70.7741 21.6011C69.9221 23.1347 68.7889 24.353 67.3746 25.2561C68.1414 25.4436 68.7974 25.8781 69.3427 26.5597C69.905 27.2413 70.3395 28.0507 70.6463 28.9878C70.953 29.908 71.2171 30.8452 71.4386 31.7994C71.6772 32.7366 71.9413 33.6653 72.231 34.5854C72.5377 35.5056 72.87 36.1957 73.2278 36.6558H63.7963C63.6088 36.4172 63.464 35.7526 63.3618 34.6621C63.2595 33.5545 63.1147 32.2339 62.9272 30.7003C62.7568 29.1497 62.5098 27.8547 62.186 26.8153C62.1519 26.8153 62.1093 26.8153 62.0582 26.8153C61.7344 26.8153 61.3851 26.8153 61.0103 26.8153C60.6524 26.7982 60.3372 26.7812 60.0646 26.7642C59.7919 26.7471 59.5022 26.7301 59.1955 26.713C58.9058 26.696 58.6928 26.6875 58.5565 26.6875ZM58.5565 21.9334H59.3744C59.8004 21.9334 60.1583 21.9163 60.4479 21.8822C60.7376 21.8482 61.0529 21.7885 61.3937 21.7033C61.7515 21.6011 62.0412 21.4477 62.2627 21.2433C62.5012 21.0388 62.7228 20.7747 62.9272 20.4509C63.1317 20.1271 63.2851 19.7097 63.3873 19.1985C63.4895 18.6873 63.5407 18.0909 63.5407 17.4093V15.3901C63.5407 13.9076 63.1488 12.8767 62.3649 12.2974C61.5981 11.701 60.4905 11.4028 59.0422 11.4028H58.5565V21.9334Z" fill="black"/>
<path d="M92.9802 36.6558H74.8584V6.69979H92.5968L92.0857 12.7319L83.3187 12.4763V18.2528H90.2198V24.2337L83.3187 23.7225V30.5214L92.9802 30.2658V36.6558Z" fill="black"/>
<path d="M113.423 36.6558H95.3012V6.69979H113.04L112.528 12.7319L103.761 12.4763V18.2528H110.663V24.2337L103.761 23.7225V30.5214L113.423 30.2658V36.6558Z" fill="black"/>
<path d="M123.872 36.6558H115.744V9.1024L114.492 6.69979H123.897L128.6 16.4125L133.099 26.0996L131.847 14.7255V6.69979H140V36.6558H132.204L126.121 24.8216L122.364 17.4093L123.872 27.2242V36.6558Z" fill="black"/>
<path d="M15.0324 41.4354H8.61688V36.8858C7.10034 36.5961 5.82235 36.1701 4.78293 35.6078C3.76054 35.0285 2.97671 34.4406 2.43143 33.8442L3.07043 27.6332C3.76906 28.5704 4.70625 29.3883 5.88199 30.0869C7.05774 30.7685 8.3272 31.1093 9.69039 31.1093C11.0536 31.1093 12.0334 30.9645 12.6298 30.6748C13.2432 30.3851 13.5499 29.8569 13.5499 29.0901C13.5499 28.2722 13.2006 27.5735 12.502 26.9942C11.8204 26.4148 10.6361 25.7162 8.94916 24.8983C8.52316 24.6768 8.16533 24.4893 7.87565 24.336C7.58597 24.1826 7.18554 23.9355 6.67434 23.5947C6.18019 23.254 5.75419 22.9217 5.39636 22.5979C5.03852 22.2742 4.64661 21.8567 4.22061 21.3455C3.81166 20.8343 3.47086 20.3061 3.19823 19.7608C2.94263 19.2155 2.72111 18.5765 2.53367 17.8438C2.36328 17.0941 2.27808 16.3102 2.27808 15.4923C2.27808 13.8735 2.52515 12.4678 3.01931 11.275C3.5305 10.0822 4.24617 9.12796 5.16632 8.41229C6.10351 7.67958 7.2537 7.14282 8.61688 6.80203V2.40576H15.0324V6.57199C15.7821 6.70831 16.4807 6.90427 17.1283 7.15987C17.7928 7.41546 18.3125 7.67106 18.6874 7.92666C19.0793 8.16521 19.4286 8.42933 19.7353 8.71901C20.0591 8.99164 20.2636 9.17908 20.3488 9.28132C20.434 9.38356 20.4936 9.46876 20.5277 9.53692L19.2497 14.4699C18.5852 13.6861 17.7502 13.1068 16.7449 12.7319C15.7566 12.34 14.8108 12.144 13.9077 12.144C11.7266 12.144 10.6361 12.8256 10.6361 14.1888C10.6361 14.5466 10.7043 14.8704 10.8406 15.16C10.9769 15.4497 11.1984 15.7138 11.5051 15.9524C11.8118 16.191 12.093 16.3954 12.3486 16.5658C12.6212 16.7362 12.9876 16.9492 13.4477 17.2048C13.9248 17.4434 14.2826 17.6393 14.5212 17.7927C17.009 18.8492 18.8322 20.1016 19.9909 21.55C21.1667 22.9984 21.7546 24.762 21.7546 26.8408C21.7546 29.6354 21.1837 31.8846 20.0421 33.5886C18.9004 35.2755 17.2305 36.3746 15.0324 36.8858V41.4354Z" stroke="black" stroke-width="0.766791" stroke-linejoin="round"/>
<path d="M42.7125 33.9464C40.5485 36.1105 37.9754 37.1925 34.9935 37.1925C32.8806 37.1925 31.0488 36.8261 29.4982 36.0934C27.9646 35.3607 26.7462 34.3043 25.8431 32.924C24.94 31.5438 24.2755 29.9676 23.8495 28.1955C23.4405 26.4234 23.236 24.4041 23.236 22.1378C23.236 20.4509 23.3212 18.9344 23.4916 17.5882C23.6791 16.2421 23.9773 14.9556 24.3862 13.7287C24.7952 12.5018 25.3575 11.4454 26.0732 10.5593C26.7888 9.65619 27.6664 8.87236 28.7058 8.20781C29.7452 7.54326 31.0062 7.04911 32.4886 6.72535C33.9711 6.38455 35.658 6.21416 37.5495 6.21416C38.4014 6.21416 39.2108 6.26528 39.9776 6.36751C40.7615 6.46975 41.426 6.59755 41.9713 6.75091C42.5166 6.88723 43.0277 7.06615 43.5049 7.28766C43.999 7.49214 44.3824 7.67958 44.6551 7.84998C44.9447 8.00333 45.2088 8.17373 45.4474 8.36117C45.686 8.54861 45.8308 8.67641 45.8819 8.74457C45.9501 8.81272 46.0012 8.86384 46.0353 8.89792L45.6519 14.7767H41L39.5431 11.3772C39.1682 11.1727 38.5633 11.0705 37.7284 11.0705C37.0468 11.0705 36.4845 11.1301 36.0414 11.2494C35.5984 11.3687 35.1554 11.6243 34.7123 12.0162C34.2863 12.3911 33.9455 12.9449 33.6899 13.6776C33.4514 14.3933 33.2554 15.373 33.1021 16.617C32.9487 17.8438 32.872 19.3433 32.872 21.1155C32.872 24.8131 33.068 27.5565 33.4599 29.3457C33.8689 31.1349 34.6782 32.0294 35.8881 32.0294C36.4845 32.0294 36.9871 31.9783 37.3961 31.8761C37.805 31.7568 38.1884 31.5523 38.5463 31.2627C38.9041 30.9559 39.1682 30.5129 39.3386 29.9336C39.509 29.3372 39.5942 28.5789 39.5942 27.6587V25.0516L36.2204 24.2849V19.0707H47.5944L47.5689 36.6558H43.0192L42.7125 33.9464Z" stroke="black" stroke-width="0.766791" stroke-linejoin="round"/>
<path d="M58.5565 26.6875V36.6558H50.0707V6.69979H53.4446C54.2625 6.69979 55.4808 6.66571 57.0996 6.59755C58.7184 6.51235 60.056 6.46975 61.1125 6.46975C64.7931 6.46975 67.5365 7.27914 69.3427 8.89792C71.166 10.5167 72.0776 12.996 72.0776 16.3358C72.0776 18.3124 71.6431 20.0675 70.7741 21.6011C69.9221 23.1347 68.7889 24.353 67.3746 25.2561C68.1414 25.4436 68.7974 25.8781 69.3427 26.5597C69.905 27.2413 70.3395 28.0507 70.6463 28.9878C70.953 29.908 71.2171 30.8452 71.4386 31.7994C71.6772 32.7366 71.9413 33.6653 72.231 34.5854C72.5377 35.5056 72.87 36.1957 73.2278 36.6558H63.7963C63.6088 36.4172 63.464 35.7526 63.3618 34.6621C63.2595 33.5545 63.1147 32.2339 62.9272 30.7003C62.7568 29.1497 62.5098 27.8547 62.186 26.8153C62.1519 26.8153 62.1093 26.8153 62.0582 26.8153C61.7344 26.8153 61.3851 26.8153 61.0103 26.8153C60.6524 26.7982 60.3372 26.7812 60.0646 26.7642C59.7919 26.7471 59.5022 26.7301 59.1955 26.713C58.9058 26.696 58.6928 26.6875 58.5565 26.6875ZM58.5565 21.9334H59.3744C59.8004 21.9334 60.1583 21.9163 60.4479 21.8822C60.7376 21.8482 61.0529 21.7885 61.3937 21.7033C61.7515 21.6011 62.0412 21.4477 62.2627 21.2433C62.5012 21.0388 62.7228 20.7747 62.9272 20.4509C63.1317 20.1271 63.2851 19.7097 63.3873 19.1985C63.4895 18.6873 63.5407 18.0909 63.5407 17.4093V15.3901C63.5407 13.9076 63.1488 12.8767 62.3649 12.2974C61.5981 11.701 60.4905 11.4028 59.0422 11.4028H58.5565V21.9334Z" stroke="black" stroke-width="0.766791" stroke-linejoin="round"/>
<path d="M92.9802 36.6558H74.8584V6.69979H92.5968L92.0857 12.7319L83.3187 12.4763V18.2528H90.2198V24.2337L83.3187 23.7225V30.5214L92.9802 30.2658V36.6558Z" stroke="black" stroke-width="0.766791" stroke-linejoin="round"/>
<path d="M113.423 36.6558H95.3012V6.69979H113.04L112.528 12.7319L103.761 12.4763V18.2528H110.663V24.2337L103.761 23.7225V30.5214L113.423 30.2658V36.6558Z" stroke="black" stroke-width="0.766791" stroke-linejoin="round"/>
<path d="M123.872 36.6558H115.744V9.1024L114.492 6.69979H123.897L128.6 16.4125L133.099 26.0996L131.847 14.7255V6.69979H140V36.6558H132.204L126.121 24.8216L122.364 17.4093L123.872 27.2242V36.6558Z" stroke="black" stroke-width="0.766791" stroke-linejoin="round"/>
<g filter="url(#filter0_i_258_8)">
<path d="M13.7543 40.0297H7.3388V35.48C5.82226 35.1903 4.54428 34.7644 3.50485 34.202C2.48246 33.6227 1.69863 33.0348 1.15336 32.4384L1.79235 26.2274C2.49098 27.1646 3.42817 27.9825 4.60392 28.6811C5.77966 29.3627 7.04913 29.7035 8.41231 29.7035C9.77549 29.7035 10.7553 29.5587 11.3517 29.269C11.9651 28.9793 12.2718 28.4511 12.2718 27.6843C12.2718 26.8664 11.9225 26.1678 11.2239 25.5884C10.5423 25.0091 9.35802 24.3104 7.67108 23.4925C7.24508 23.271 6.88725 23.0836 6.59757 22.9302C6.3079 22.7769 5.90746 22.5298 5.39627 22.189C4.90211 21.8482 4.47612 21.5159 4.11828 21.1922C3.76045 20.8684 3.36853 20.4509 2.94254 19.9397C2.53358 19.4285 2.19279 18.9003 1.92015 18.355C1.66455 17.8098 1.44303 17.1708 1.2556 16.4381C1.0852 15.6883 1 14.9045 1 14.0866C1 12.4678 1.24708 11.062 1.74123 9.86921C2.25242 8.67643 2.9681 7.7222 3.88825 7.00653C4.82543 6.27382 5.97562 5.73706 7.3388 5.39627V1H13.7543V5.16623C14.504 5.30255 15.2027 5.49851 15.8502 5.7541C16.5147 6.0097 17.0344 6.2653 17.4093 6.52089C17.8012 6.75945 18.1506 7.02357 18.4573 7.31324C18.781 7.58588 18.9855 7.77332 19.0707 7.87556C19.1559 7.9778 19.2155 8.06299 19.2496 8.13115L17.9716 13.0642C17.3071 12.2803 16.4721 11.701 15.4668 11.3261C14.4785 10.9342 13.5328 10.7382 12.6297 10.7382C10.4486 10.7382 9.35802 11.4198 9.35802 12.783C9.35802 13.1409 9.42618 13.4646 9.5625 13.7543C9.69882 14.044 9.92033 14.3081 10.227 14.5466C10.5338 14.7852 10.8149 14.9897 11.0705 15.1601C11.3432 15.3305 11.7095 15.5435 12.1696 15.7991C12.6467 16.0376 13.0045 16.2336 13.2431 16.3869C15.7309 17.4434 17.5542 18.6958 18.7129 20.1442C19.8886 21.5926 20.4765 23.3562 20.4765 25.4351C20.4765 28.2296 19.9057 30.4788 18.764 32.1828C17.6223 33.8698 15.9524 34.9688 13.7543 35.48V40.0297Z" fill="white"/>
<path d="M41.4344 32.5407C39.2704 34.7047 36.6974 35.7867 33.7154 35.7867C31.6025 35.7867 29.7707 35.4204 28.2201 34.6877C26.6865 33.955 25.4681 32.8985 24.565 31.5183C23.6619 30.1381 22.9974 28.5619 22.5714 26.7897C22.1624 25.0176 21.958 22.9984 21.958 20.7321C21.958 19.0451 22.0431 17.5286 22.2135 16.1825C22.401 14.8363 22.6992 13.5498 23.1081 12.3229C23.5171 11.0961 24.0794 10.0396 24.7951 9.15354C25.5107 8.25043 26.3883 7.4666 27.4277 6.80205C28.4672 6.1375 29.7281 5.64334 31.2106 5.31959C32.693 4.97879 34.38 4.80839 36.2714 4.80839C37.1234 4.80839 37.9328 4.85951 38.6996 4.96175C39.4834 5.06399 40.1479 5.19179 40.6932 5.34515C41.2385 5.48147 41.7497 5.66038 42.2268 5.8819C42.7209 6.08638 43.1043 6.27382 43.377 6.44422C43.6666 6.59757 43.9308 6.76797 44.1693 6.95541C44.4079 7.14285 44.5527 7.27065 44.6038 7.3388C44.672 7.40696 44.7231 7.45808 44.7572 7.49216L44.3738 13.3709H39.7219L38.265 9.97145C37.8902 9.76697 37.2852 9.66474 36.4503 9.66474C35.7687 9.66474 35.2064 9.72437 34.7634 9.84365C34.3203 9.96293 33.8773 10.2185 33.4343 10.6104C33.0083 10.9853 32.6675 11.5391 32.4119 12.2718C32.1733 12.9875 31.9774 13.9673 31.824 15.2112C31.6706 16.4381 31.594 17.9376 31.594 19.7097C31.594 23.4073 31.7899 26.1507 32.1818 27.9399C32.5908 29.7291 33.4002 30.6237 34.61 30.6237C35.2064 30.6237 35.7091 30.5726 36.118 30.4703C36.527 30.351 36.9104 30.1466 37.2682 29.8569C37.626 29.5502 37.8902 29.1071 38.0606 28.5278C38.231 27.9314 38.3162 27.1731 38.3162 26.253V23.6459L34.9423 22.8791V17.6649H46.3163L46.2908 35.25H41.7411L41.4344 32.5407Z" fill="white"/>
<path d="M57.2785 25.2817V35.25H48.7926V5.29403H52.1665C52.9844 5.29403 54.2028 5.25995 55.8215 5.19179C57.4403 5.10659 58.778 5.06399 59.8344 5.06399C63.515 5.06399 66.2584 5.87338 68.0646 7.49216C69.8879 9.11094 70.7995 11.5902 70.7995 14.93C70.7995 16.9066 70.365 18.6617 69.496 20.1953C68.644 21.7289 67.5108 22.9473 66.0965 23.8504C66.8633 24.0378 67.5194 24.4723 68.0646 25.1539C68.627 25.8355 69.0615 26.6449 69.3682 27.5821C69.6749 28.5022 69.939 29.4394 70.1605 30.3936C70.3991 31.3308 70.6632 32.2595 70.9529 33.1797C71.2596 34.0998 71.5919 34.7899 71.9497 35.25H62.5182C62.3307 35.0114 62.1859 34.3469 62.0837 33.2563C61.9814 32.1487 61.8366 30.8282 61.6492 29.2946C61.4788 27.744 61.2317 26.4489 60.9079 25.4095C60.8738 25.4095 60.8312 25.4095 60.7801 25.4095C60.4564 25.4095 60.1071 25.4095 59.7322 25.4095C59.3743 25.3925 59.0591 25.3754 58.7865 25.3584C58.5138 25.3413 58.2242 25.3243 57.9174 25.3073C57.6278 25.2902 57.4148 25.2817 57.2785 25.2817ZM57.2785 20.5276H58.0964C58.5224 20.5276 58.8802 20.5106 59.1699 20.4765C59.4595 20.4424 59.7748 20.3828 60.1156 20.2976C60.4734 20.1953 60.7631 20.042 60.9846 19.8375C61.2232 19.633 61.4447 19.3689 61.6492 19.0451C61.8536 18.7214 62.007 18.3039 62.1092 17.7927C62.2115 17.2815 62.2626 16.6851 62.2626 16.0035V13.9843C62.2626 12.5019 61.8707 11.471 61.0868 10.8916C60.3201 10.2952 59.2125 9.99701 57.7641 9.99701H57.2785V20.5276Z" fill="white"/>
<path d="M91.7022 35.25H73.5803V5.29403H91.3188L90.8076 11.3261L82.0406 11.0705V16.847H88.9417V22.828L82.0406 22.3168V29.1157L91.7022 28.8601V35.25Z" fill="white"/>
<path d="M112.145 35.25H94.0231V5.29403H111.762L111.25 11.3261L102.483 11.0705V16.847H109.384V22.828L102.483 22.3168V29.1157L112.145 28.8601V35.25Z" fill="white"/>
<path d="M122.594 35.25H114.466V7.69664L113.213 5.29403H122.619L127.322 15.0067L131.821 24.6938L130.568 13.3198V5.29403H138.722V35.25H130.926L124.843 23.4158L121.086 16.0035L122.594 25.8185V35.25Z" fill="white"/>
</g>
<path d="M13.7543 40.0297H7.3388V35.48C5.82226 35.1903 4.54428 34.7644 3.50485 34.202C2.48246 33.6227 1.69863 33.0348 1.15336 32.4384L1.79235 26.2274C2.49098 27.1646 3.42817 27.9825 4.60392 28.6811C5.77966 29.3627 7.04913 29.7035 8.41231 29.7035C9.77549 29.7035 10.7553 29.5587 11.3517 29.269C11.9651 28.9793 12.2718 28.4511 12.2718 27.6843C12.2718 26.8664 11.9225 26.1678 11.2239 25.5884C10.5423 25.0091 9.35802 24.3104 7.67108 23.4925C7.24508 23.271 6.88725 23.0836 6.59757 22.9302C6.3079 22.7769 5.90746 22.5298 5.39627 22.189C4.90211 21.8482 4.47612 21.5159 4.11828 21.1922C3.76045 20.8684 3.36853 20.4509 2.94254 19.9397C2.53358 19.4285 2.19279 18.9003 1.92015 18.355C1.66455 17.8098 1.44303 17.1708 1.2556 16.4381C1.0852 15.6883 1 14.9045 1 14.0866C1 12.4678 1.24708 11.062 1.74123 9.86921C2.25242 8.67643 2.9681 7.7222 3.88825 7.00653C4.82543 6.27382 5.97562 5.73706 7.3388 5.39627V1H13.7543V5.16623C14.504 5.30255 15.2027 5.49851 15.8502 5.7541C16.5147 6.0097 17.0344 6.2653 17.4093 6.52089C17.8012 6.75945 18.1506 7.02357 18.4573 7.31324C18.781 7.58588 18.9855 7.77332 19.0707 7.87556C19.1559 7.9778 19.2155 8.06299 19.2496 8.13115L17.9716 13.0642C17.3071 12.2803 16.4721 11.701 15.4668 11.3261C14.4785 10.9342 13.5328 10.7382 12.6297 10.7382C10.4486 10.7382 9.35802 11.4198 9.35802 12.783C9.35802 13.1409 9.42618 13.4646 9.5625 13.7543C9.69882 14.044 9.92033 14.3081 10.227 14.5466C10.5338 14.7852 10.8149 14.9897 11.0705 15.1601C11.3432 15.3305 11.7095 15.5435 12.1696 15.7991C12.6467 16.0376 13.0045 16.2336 13.2431 16.3869C15.7309 17.4434 17.5542 18.6958 18.7129 20.1442C19.8886 21.5926 20.4765 23.3562 20.4765 25.4351C20.4765 28.2296 19.9057 30.4788 18.764 32.1828C17.6223 33.8698 15.9524 34.9688 13.7543 35.48V40.0297Z" stroke="black" stroke-width="0.766791" stroke-linejoin="round"/>
<path d="M41.4344 32.5407C39.2704 34.7047 36.6974 35.7867 33.7154 35.7867C31.6025 35.7867 29.7707 35.4204 28.2201 34.6877C26.6865 33.955 25.4681 32.8985 24.565 31.5183C23.6619 30.1381 22.9974 28.5619 22.5714 26.7897C22.1624 25.0176 21.958 22.9984 21.958 20.7321C21.958 19.0451 22.0431 17.5286 22.2135 16.1825C22.401 14.8363 22.6992 13.5498 23.1081 12.3229C23.5171 11.0961 24.0794 10.0396 24.7951 9.15354C25.5107 8.25043 26.3883 7.4666 27.4277 6.80205C28.4672 6.1375 29.7281 5.64334 31.2106 5.31959C32.693 4.97879 34.38 4.80839 36.2714 4.80839C37.1234 4.80839 37.9328 4.85951 38.6996 4.96175C39.4834 5.06399 40.1479 5.19179 40.6932 5.34515C41.2385 5.48147 41.7497 5.66038 42.2268 5.8819C42.7209 6.08638 43.1043 6.27382 43.377 6.44422C43.6666 6.59757 43.9308 6.76797 44.1693 6.95541C44.4079 7.14285 44.5527 7.27065 44.6038 7.3388C44.672 7.40696 44.7231 7.45808 44.7572 7.49216L44.3738 13.3709H39.7219L38.265 9.97145C37.8902 9.76697 37.2852 9.66474 36.4503 9.66474C35.7687 9.66474 35.2064 9.72437 34.7634 9.84365C34.3203 9.96293 33.8773 10.2185 33.4343 10.6104C33.0083 10.9853 32.6675 11.5391 32.4119 12.2718C32.1733 12.9875 31.9774 13.9673 31.824 15.2112C31.6706 16.4381 31.594 17.9376 31.594 19.7097C31.594 23.4073 31.7899 26.1507 32.1818 27.9399C32.5908 29.7291 33.4002 30.6237 34.61 30.6237C35.2064 30.6237 35.7091 30.5726 36.118 30.4703C36.527 30.351 36.9104 30.1466 37.2682 29.8569C37.626 29.5502 37.8902 29.1071 38.0606 28.5278C38.231 27.9314 38.3162 27.1731 38.3162 26.253V23.6459L34.9423 22.8791V17.6649H46.3163L46.2908 35.25H41.7411L41.4344 32.5407Z" stroke="black" stroke-width="0.766791" stroke-linejoin="round"/>
<path d="M57.2785 25.2817V35.25H48.7926V5.29403H52.1665C52.9844 5.29403 54.2028 5.25995 55.8215 5.19179C57.4403 5.10659 58.778 5.06399 59.8344 5.06399C63.515 5.06399 66.2584 5.87338 68.0646 7.49216C69.8879 9.11094 70.7995 11.5902 70.7995 14.93C70.7995 16.9066 70.365 18.6617 69.496 20.1953C68.644 21.7289 67.5108 22.9473 66.0965 23.8504C66.8633 24.0378 67.5194 24.4723 68.0646 25.1539C68.627 25.8355 69.0615 26.6449 69.3682 27.5821C69.6749 28.5022 69.939 29.4394 70.1605 30.3936C70.3991 31.3308 70.6632 32.2595 70.9529 33.1797C71.2596 34.0998 71.5919 34.7899 71.9497 35.25H62.5182C62.3307 35.0114 62.1859 34.3469 62.0837 33.2563C61.9814 32.1487 61.8366 30.8282 61.6492 29.2946C61.4788 27.744 61.2317 26.4489 60.9079 25.4095C60.8738 25.4095 60.8312 25.4095 60.7801 25.4095C60.4564 25.4095 60.1071 25.4095 59.7322 25.4095C59.3743 25.3925 59.0591 25.3754 58.7865 25.3584C58.5138 25.3413 58.2242 25.3243 57.9174 25.3073C57.6278 25.2902 57.4148 25.2817 57.2785 25.2817ZM57.2785 20.5276H58.0964C58.5224 20.5276 58.8802 20.5106 59.1699 20.4765C59.4595 20.4424 59.7748 20.3828 60.1156 20.2976C60.4734 20.1953 60.7631 20.042 60.9846 19.8375C61.2232 19.633 61.4447 19.3689 61.6492 19.0451C61.8536 18.7214 62.007 18.3039 62.1092 17.7927C62.2115 17.2815 62.2626 16.6851 62.2626 16.0035V13.9843C62.2626 12.5019 61.8707 11.471 61.0868 10.8916C60.3201 10.2952 59.2125 9.99701 57.7641 9.99701H57.2785V20.5276Z" stroke="black" stroke-width="0.766791" stroke-linejoin="round"/>
<path d="M91.7022 35.25H73.5803V5.29403H91.3188L90.8076 11.3261L82.0406 11.0705V16.847H88.9417V22.828L82.0406 22.3168V29.1157L91.7022 28.8601V35.25Z" stroke="black" stroke-width="0.766791" stroke-linejoin="round"/>
<path d="M112.145 35.25H94.0231V5.29403H111.762L111.25 11.3261L102.483 11.0705V16.847H109.384V22.828L102.483 22.3168V29.1157L112.145 28.8601V35.25Z" stroke="black" stroke-width="0.766791" stroke-linejoin="round"/>
<path d="M122.594 35.25H114.466V7.69664L113.213 5.29403H122.619L127.322 15.0067L131.821 24.6938L130.568 13.3198V5.29403H138.722V35.25H130.926L124.843 23.4158L121.086 16.0035L122.594 25.8185V35.25Z" stroke="black" stroke-width="0.766791" stroke-linejoin="round"/>
<defs>
<filter id="filter0_i_258_8" x="0.616699" y="0.616699" width="138.489" height="39.7964" filterUnits="userSpaceOnUse" color-interpolation-filters="sRGB">
<feFlood flood-opacity="0" result="BackgroundImageFix"/>
<feBlend mode="normal" in="SourceGraphic" in2="BackgroundImageFix" result="shape"/>
<feColorMatrix in="SourceAlpha" type="matrix" values="0 0 0 0 0 0 0 0 0 0 0 0 0 0 0 0 0 0 127 0" result="hardAlpha"/>
<feOffset dx="1.40578" dy="1.53358"/>
<feComposite in2="hardAlpha" operator="arithmetic" k2="-1" k3="1"/>
<feColorMatrix type="matrix" values="0 0 0 0 0.8125 0 0 0 0 0.8125 0 0 0 0 0.8125 0 0 0 1 0"/>
<feBlend mode="normal" in2="shape" result="effect1_innerShadow_258_8"/>
</filter>
</defs>
</svg>
